<mxfile host="app.diagrams.net" modified="2024-04-22T13:01:39.174Z" agent="Mozilla/5.0 (X11; Linux x86_64) AppleWebKit/537.36 (KHTML, like Gecko) Chrome/124.0.0.0 Safari/537.36" etag="9K7K0QVNUZF6K7BV3PBk" version="24.2.7" type="device">
  <diagram name="Page-1" id="2YBvvXClWsGukQMizWep">
    <mxGraphModel dx="1364" dy="1859" grid="1" gridSize="10" guides="1" tooltips="1" connect="1" arrows="1" fold="1" page="1" pageScale="1" pageWidth="850" pageHeight="1100" math="0" shadow="0">
      <root>
        <mxCell id="0" />
        <mxCell id="1" parent="0" />
        <mxCell id="HNsuzrvbaMhc-dj44Uxk-2" value="" style="rounded=0;whiteSpace=wrap;html=1;" parent="1" vertex="1">
          <mxGeometry x="64" y="-539" width="720" height="337" as="geometry" />
        </mxCell>
        <mxCell id="HNsuzrvbaMhc-dj44Uxk-3" value="" style="endArrow=classic;html=1;rounded=0;" parent="1" edge="1">
          <mxGeometry width="50" height="50" relative="1" as="geometry">
            <mxPoint x="134" y="-502" as="sourcePoint" />
            <mxPoint x="409.5" y="-502" as="targetPoint" />
          </mxGeometry>
        </mxCell>
        <mxCell id="HNsuzrvbaMhc-dj44Uxk-4" value="&lt;span style=&quot;font-size: 13px;&quot;&gt;demande de la modification d&#39;un user&lt;/span&gt;" style="edgeLabel;html=1;align=center;verticalAlign=middle;resizable=0;points=[];" parent="HNsuzrvbaMhc-dj44Uxk-3" vertex="1" connectable="0">
          <mxGeometry x="-0.103" y="3" relative="1" as="geometry">
            <mxPoint x="2" y="-17" as="offset" />
          </mxGeometry>
        </mxCell>
        <mxCell id="HNsuzrvbaMhc-dj44Uxk-5" value="&lt;span style=&quot;font-size: 13px;&quot;&gt;mise à jour&lt;/span&gt;" style="edgeLabel;html=1;align=center;verticalAlign=middle;resizable=0;points=[];" parent="HNsuzrvbaMhc-dj44Uxk-3" vertex="1" connectable="0">
          <mxGeometry x="-0.103" y="3" relative="1" as="geometry">
            <mxPoint x="302" y="3" as="offset" />
          </mxGeometry>
        </mxCell>
        <mxCell id="HNsuzrvbaMhc-dj44Uxk-6" value="&lt;span style=&quot;font-size: 13px;&quot;&gt;mise à jour effectuée&lt;/span&gt;" style="edgeLabel;html=1;align=center;verticalAlign=middle;resizable=0;points=[];" parent="HNsuzrvbaMhc-dj44Uxk-3" vertex="1" connectable="0">
          <mxGeometry x="-0.103" y="3" relative="1" as="geometry">
            <mxPoint x="296" y="49" as="offset" />
          </mxGeometry>
        </mxCell>
        <mxCell id="HNsuzrvbaMhc-dj44Uxk-7" value="&lt;span style=&quot;font-size: 13px;&quot;&gt;message d&#39;erreur&lt;/span&gt;" style="edgeLabel;html=1;align=center;verticalAlign=middle;resizable=0;points=[];" parent="HNsuzrvbaMhc-dj44Uxk-3" vertex="1" connectable="0">
          <mxGeometry x="-0.103" y="3" relative="1" as="geometry">
            <mxPoint x="6" y="268" as="offset" />
          </mxGeometry>
        </mxCell>
        <mxCell id="HNsuzrvbaMhc-dj44Uxk-8" value="" style="endArrow=classic;html=1;rounded=0;" parent="1" edge="1">
          <mxGeometry width="50" height="50" relative="1" as="geometry">
            <mxPoint x="424" y="-481.5" as="sourcePoint" />
            <mxPoint x="679" y="-481.5" as="targetPoint" />
            <Array as="points">
              <mxPoint x="509" y="-481.5" />
            </Array>
          </mxGeometry>
        </mxCell>
        <mxCell id="HNsuzrvbaMhc-dj44Uxk-9" value="" style="endArrow=none;dashed=1;html=1;rounded=0;startArrow=classic;startFill=1;" parent="1" edge="1">
          <mxGeometry width="50" height="50" relative="1" as="geometry">
            <mxPoint x="424" y="-442" as="sourcePoint" />
            <mxPoint x="674" y="-442" as="targetPoint" />
          </mxGeometry>
        </mxCell>
        <mxCell id="HNsuzrvbaMhc-dj44Uxk-10" value="" style="endArrow=classic;html=1;rounded=0;" parent="1" edge="1">
          <mxGeometry width="50" height="50" relative="1" as="geometry">
            <mxPoint x="131.25" y="-350" as="sourcePoint" />
            <mxPoint x="406.75" y="-350" as="targetPoint" />
          </mxGeometry>
        </mxCell>
        <mxCell id="HNsuzrvbaMhc-dj44Uxk-11" value="&lt;span style=&quot;font-size: 13px;&quot;&gt;demande de la modification d&#39;un user&lt;/span&gt;" style="edgeLabel;html=1;align=center;verticalAlign=middle;resizable=0;points=[];" parent="HNsuzrvbaMhc-dj44Uxk-10" vertex="1" connectable="0">
          <mxGeometry x="-0.103" y="3" relative="1" as="geometry">
            <mxPoint x="5" y="-17" as="offset" />
          </mxGeometry>
        </mxCell>
        <mxCell id="HNsuzrvbaMhc-dj44Uxk-12" value="&lt;span style=&quot;font-size: 13px;&quot;&gt;mise à jour&lt;/span&gt;" style="edgeLabel;html=1;align=center;verticalAlign=middle;resizable=0;points=[];" parent="HNsuzrvbaMhc-dj44Uxk-10" vertex="1" connectable="0">
          <mxGeometry x="-0.103" y="3" relative="1" as="geometry">
            <mxPoint x="302" y="3" as="offset" />
          </mxGeometry>
        </mxCell>
        <mxCell id="HNsuzrvbaMhc-dj44Uxk-13" value="&lt;span style=&quot;font-size: 13px;&quot;&gt;echec de la mise à jour&lt;/span&gt;" style="edgeLabel;html=1;align=center;verticalAlign=middle;resizable=0;points=[];" parent="HNsuzrvbaMhc-dj44Uxk-10" vertex="1" connectable="0">
          <mxGeometry x="-0.103" y="3" relative="1" as="geometry">
            <mxPoint x="296" y="49" as="offset" />
          </mxGeometry>
        </mxCell>
        <mxCell id="HNsuzrvbaMhc-dj44Uxk-14" value="" style="endArrow=none;dashed=1;html=1;rounded=0;entryX=1.004;entryY=0.611;entryDx=0;entryDy=0;entryPerimeter=0;" parent="1" edge="1">
          <mxGeometry width="50" height="50" relative="1" as="geometry">
            <mxPoint x="64" y="-398.90999999999997" as="sourcePoint" />
            <mxPoint x="786.8800000000001" y="-400.00300000000004" as="targetPoint" />
          </mxGeometry>
        </mxCell>
        <mxCell id="HNsuzrvbaMhc-dj44Uxk-15" value="&lt;font style=&quot;font-size: 15px;&quot;&gt;Diagramme de séquences admin/user&lt;/font&gt;" style="text;html=1;align=center;verticalAlign=middle;whiteSpace=wrap;rounded=0;" parent="1" vertex="1">
          <mxGeometry x="280" y="-1060" width="315.5" height="30" as="geometry" />
        </mxCell>
        <mxCell id="HNsuzrvbaMhc-dj44Uxk-16" value="" style="endArrow=classic;html=1;rounded=0;" parent="1" edge="1">
          <mxGeometry width="50" height="50" relative="1" as="geometry">
            <mxPoint x="424" y="-273" as="sourcePoint" />
            <mxPoint x="679" y="-273" as="targetPoint" />
          </mxGeometry>
        </mxCell>
        <mxCell id="HNsuzrvbaMhc-dj44Uxk-17" value="" style="endArrow=none;dashed=1;html=1;rounded=0;startArrow=classic;startFill=1;" parent="1" edge="1">
          <mxGeometry width="50" height="50" relative="1" as="geometry">
            <mxPoint x="134" y="-222" as="sourcePoint" />
            <mxPoint x="409.5" y="-222" as="targetPoint" />
          </mxGeometry>
        </mxCell>
        <mxCell id="HNsuzrvbaMhc-dj44Uxk-18" value="&lt;b&gt;else&lt;/b&gt;" style="text;html=1;align=center;verticalAlign=middle;whiteSpace=wrap;rounded=0;" parent="1" vertex="1">
          <mxGeometry x="64" y="-332" width="60" height="30" as="geometry" />
        </mxCell>
        <mxCell id="HNsuzrvbaMhc-dj44Uxk-19" value="&lt;b&gt;Alt&lt;/b&gt;" style="text;html=1;align=center;verticalAlign=middle;whiteSpace=wrap;rounded=0;" parent="1" vertex="1">
          <mxGeometry x="64" y="-539" width="60" height="30" as="geometry" />
        </mxCell>
        <mxCell id="HNsuzrvbaMhc-dj44Uxk-20" value="" style="rounded=0;whiteSpace=wrap;html=1;" parent="1" vertex="1">
          <mxGeometry x="64" y="-931" width="720" height="140" as="geometry" />
        </mxCell>
        <mxCell id="HNsuzrvbaMhc-dj44Uxk-21" value="includ cf:connection" style="text;html=1;align=center;verticalAlign=middle;whiteSpace=wrap;rounded=0;" parent="1" vertex="1">
          <mxGeometry x="154" y="-891" width="230" height="30" as="geometry" />
        </mxCell>
        <mxCell id="HNsuzrvbaMhc-dj44Uxk-22" value="" style="rounded=0;whiteSpace=wrap;html=1;" parent="1" vertex="1">
          <mxGeometry x="64" y="-137" width="720" height="337" as="geometry" />
        </mxCell>
        <mxCell id="HNsuzrvbaMhc-dj44Uxk-23" value="&lt;b&gt;Alt&lt;/b&gt;" style="text;html=1;align=center;verticalAlign=middle;whiteSpace=wrap;rounded=0;" parent="1" vertex="1">
          <mxGeometry x="64" y="-127" width="60" height="30" as="geometry" />
        </mxCell>
        <mxCell id="HNsuzrvbaMhc-dj44Uxk-24" value="" style="endArrow=classic;html=1;rounded=0;" parent="1" edge="1">
          <mxGeometry width="50" height="50" relative="1" as="geometry">
            <mxPoint x="131.25" y="-87" as="sourcePoint" />
            <mxPoint x="406.75" y="-87" as="targetPoint" />
          </mxGeometry>
        </mxCell>
        <mxCell id="HNsuzrvbaMhc-dj44Uxk-25" value="&lt;span style=&quot;font-size: 13px;&quot;&gt;demande de suppression d&#39; un user&lt;/span&gt;" style="edgeLabel;html=1;align=center;verticalAlign=middle;resizable=0;points=[];" parent="HNsuzrvbaMhc-dj44Uxk-24" vertex="1" connectable="0">
          <mxGeometry x="-0.103" y="3" relative="1" as="geometry">
            <mxPoint x="5" y="-20" as="offset" />
          </mxGeometry>
        </mxCell>
        <mxCell id="HNsuzrvbaMhc-dj44Uxk-26" value="&lt;span style=&quot;font-size: 13px;&quot;&gt;suppression&lt;/span&gt;" style="edgeLabel;html=1;align=center;verticalAlign=middle;resizable=0;points=[];" parent="HNsuzrvbaMhc-dj44Uxk-24" vertex="1" connectable="0">
          <mxGeometry x="-0.103" y="3" relative="1" as="geometry">
            <mxPoint x="302" y="3" as="offset" />
          </mxGeometry>
        </mxCell>
        <mxCell id="HNsuzrvbaMhc-dj44Uxk-27" value="&lt;span style=&quot;font-size: 13px;&quot;&gt;suppression effectué&lt;/span&gt;" style="edgeLabel;html=1;align=center;verticalAlign=middle;resizable=0;points=[];" parent="HNsuzrvbaMhc-dj44Uxk-24" vertex="1" connectable="0">
          <mxGeometry x="-0.103" y="3" relative="1" as="geometry">
            <mxPoint x="296" y="49" as="offset" />
          </mxGeometry>
        </mxCell>
        <mxCell id="HNsuzrvbaMhc-dj44Uxk-28" value="&lt;span style=&quot;font-size: 13px;&quot;&gt;message d&#39;erreur&lt;/span&gt;" style="edgeLabel;html=1;align=center;verticalAlign=middle;resizable=0;points=[];" parent="HNsuzrvbaMhc-dj44Uxk-24" vertex="1" connectable="0">
          <mxGeometry x="-0.103" y="3" relative="1" as="geometry">
            <mxPoint x="6" y="253" as="offset" />
          </mxGeometry>
        </mxCell>
        <mxCell id="HNsuzrvbaMhc-dj44Uxk-29" value="" style="endArrow=classic;html=1;rounded=0;" parent="1" edge="1">
          <mxGeometry width="50" height="50" relative="1" as="geometry">
            <mxPoint x="424" y="-67" as="sourcePoint" />
            <mxPoint x="679" y="-67" as="targetPoint" />
            <Array as="points">
              <mxPoint x="509" y="-67" />
            </Array>
          </mxGeometry>
        </mxCell>
        <mxCell id="HNsuzrvbaMhc-dj44Uxk-30" value="" style="endArrow=none;dashed=1;html=1;rounded=0;startArrow=classic;startFill=1;" parent="1" edge="1">
          <mxGeometry width="50" height="50" relative="1" as="geometry">
            <mxPoint x="424" y="-17" as="sourcePoint" />
            <mxPoint x="674" y="-17" as="targetPoint" />
          </mxGeometry>
        </mxCell>
        <mxCell id="HNsuzrvbaMhc-dj44Uxk-31" value="" style="endArrow=none;dashed=1;html=1;rounded=0;entryX=1.004;entryY=0.611;entryDx=0;entryDy=0;entryPerimeter=0;" parent="1" edge="1">
          <mxGeometry width="50" height="50" relative="1" as="geometry">
            <mxPoint x="64" y="44" as="sourcePoint" />
            <mxPoint x="787" y="43" as="targetPoint" />
          </mxGeometry>
        </mxCell>
        <mxCell id="HNsuzrvbaMhc-dj44Uxk-32" value="" style="endArrow=classic;html=1;rounded=0;" parent="1" edge="1">
          <mxGeometry width="50" height="50" relative="1" as="geometry">
            <mxPoint x="131.25" y="103" as="sourcePoint" />
            <mxPoint x="406.75" y="103" as="targetPoint" />
          </mxGeometry>
        </mxCell>
        <mxCell id="HNsuzrvbaMhc-dj44Uxk-33" value="&lt;span style=&quot;font-size: 13px;&quot;&gt;demande de suppression d&#39; un user&lt;/span&gt;" style="edgeLabel;html=1;align=center;verticalAlign=middle;resizable=0;points=[];" parent="HNsuzrvbaMhc-dj44Uxk-32" vertex="1" connectable="0">
          <mxGeometry x="-0.103" y="3" relative="1" as="geometry">
            <mxPoint x="15" y="-17" as="offset" />
          </mxGeometry>
        </mxCell>
        <mxCell id="HNsuzrvbaMhc-dj44Uxk-34" value="&lt;span style=&quot;font-size: 13px;&quot;&gt;suppression&lt;/span&gt;" style="edgeLabel;html=1;align=center;verticalAlign=middle;resizable=0;points=[];" parent="HNsuzrvbaMhc-dj44Uxk-32" vertex="1" connectable="0">
          <mxGeometry x="-0.103" y="3" relative="1" as="geometry">
            <mxPoint x="302" y="3" as="offset" />
          </mxGeometry>
        </mxCell>
        <mxCell id="HNsuzrvbaMhc-dj44Uxk-35" value="&lt;span style=&quot;font-size: 13px;&quot;&gt;echec de la suppression&lt;/span&gt;" style="edgeLabel;html=1;align=center;verticalAlign=middle;resizable=0;points=[];" parent="HNsuzrvbaMhc-dj44Uxk-32" vertex="1" connectable="0">
          <mxGeometry x="-0.103" y="3" relative="1" as="geometry">
            <mxPoint x="296" y="49" as="offset" />
          </mxGeometry>
        </mxCell>
        <mxCell id="HNsuzrvbaMhc-dj44Uxk-36" value="" style="endArrow=none;dashed=1;html=1;rounded=0;startArrow=classic;startFill=1;" parent="1" edge="1">
          <mxGeometry width="50" height="50" relative="1" as="geometry">
            <mxPoint x="131.25" y="182" as="sourcePoint" />
            <mxPoint x="406.75" y="182" as="targetPoint" />
          </mxGeometry>
        </mxCell>
        <mxCell id="HNsuzrvbaMhc-dj44Uxk-37" value="" style="endArrow=none;dashed=1;html=1;rounded=0;startArrow=classic;startFill=1;" parent="1" edge="1">
          <mxGeometry width="50" height="50" relative="1" as="geometry">
            <mxPoint x="424" y="163" as="sourcePoint" />
            <mxPoint x="674" y="163" as="targetPoint" />
          </mxGeometry>
        </mxCell>
        <mxCell id="HNsuzrvbaMhc-dj44Uxk-38" value="&lt;b&gt;else&lt;/b&gt;" style="text;html=1;align=center;verticalAlign=middle;whiteSpace=wrap;rounded=0;" parent="1" vertex="1">
          <mxGeometry x="64" y="43" width="60" height="30" as="geometry" />
        </mxCell>
        <mxCell id="HNsuzrvbaMhc-dj44Uxk-39" value="" style="rounded=0;whiteSpace=wrap;html=1;" parent="1" vertex="1">
          <mxGeometry x="64" y="-750" width="720" height="140" as="geometry" />
        </mxCell>
        <mxCell id="HNsuzrvbaMhc-dj44Uxk-40" value="&lt;font style=&quot;font-size: 15px;&quot;&gt;:user&lt;/font&gt;" style="shape=umlLifeline;perimeter=lifelinePerimeter;whiteSpace=wrap;html=1;container=0;dropTarget=0;collapsible=0;recursiveResize=0;outlineConnect=0;portConstraint=eastwest;newEdgeStyle={&quot;edgeStyle&quot;:&quot;elbowEdgeStyle&quot;,&quot;elbow&quot;:&quot;vertical&quot;,&quot;curved&quot;:0,&quot;rounded&quot;:0};" parent="1" vertex="1">
          <mxGeometry x="64" y="-1011" width="120" height="1251" as="geometry" />
        </mxCell>
        <mxCell id="HNsuzrvbaMhc-dj44Uxk-41" value="" style="html=1;points=[];perimeter=orthogonalPerimeter;outlineConnect=0;targetShapes=umlLifeline;portConstraint=eastwest;newEdgeStyle={&quot;edgeStyle&quot;:&quot;elbowEdgeStyle&quot;,&quot;elbow&quot;:&quot;vertical&quot;,&quot;curved&quot;:0,&quot;rounded&quot;:0};" parent="HNsuzrvbaMhc-dj44Uxk-40" vertex="1">
          <mxGeometry x="55" y="60" width="10" height="1170" as="geometry" />
        </mxCell>
        <mxCell id="HNsuzrvbaMhc-dj44Uxk-42" value="&lt;font style=&quot;font-size: 15px;&quot;&gt;:system&lt;/font&gt;" style="shape=umlLifeline;perimeter=lifelinePerimeter;whiteSpace=wrap;html=1;container=0;dropTarget=0;collapsible=0;recursiveResize=0;outlineConnect=0;portConstraint=eastwest;newEdgeStyle={&quot;edgeStyle&quot;:&quot;elbowEdgeStyle&quot;,&quot;elbow&quot;:&quot;vertical&quot;,&quot;curved&quot;:0,&quot;rounded&quot;:0};" parent="1" vertex="1">
          <mxGeometry x="347" y="-1010" width="135" height="1250" as="geometry" />
        </mxCell>
        <mxCell id="HNsuzrvbaMhc-dj44Uxk-43" value="" style="html=1;points=[];perimeter=orthogonalPerimeter;outlineConnect=0;targetShapes=umlLifeline;portConstraint=eastwest;newEdgeStyle={&quot;edgeStyle&quot;:&quot;elbowEdgeStyle&quot;,&quot;elbow&quot;:&quot;vertical&quot;,&quot;curved&quot;:0,&quot;rounded&quot;:0};" parent="HNsuzrvbaMhc-dj44Uxk-42" vertex="1">
          <mxGeometry x="62.5" y="60" width="10" height="1170" as="geometry" />
        </mxCell>
        <mxCell id="HNsuzrvbaMhc-dj44Uxk-44" value="&lt;font style=&quot;font-size: 15px;&quot;&gt;:Bdd&lt;/font&gt;" style="shape=umlLifeline;perimeter=lifelinePerimeter;whiteSpace=wrap;html=1;container=0;dropTarget=0;collapsible=0;recursiveResize=0;outlineConnect=0;portConstraint=eastwest;newEdgeStyle={&quot;edgeStyle&quot;:&quot;elbowEdgeStyle&quot;,&quot;elbow&quot;:&quot;vertical&quot;,&quot;curved&quot;:0,&quot;rounded&quot;:0};" parent="1" vertex="1">
          <mxGeometry x="634" y="-1010" width="100" height="1250" as="geometry" />
        </mxCell>
        <mxCell id="HNsuzrvbaMhc-dj44Uxk-45" value="" style="html=1;points=[];perimeter=orthogonalPerimeter;outlineConnect=0;targetShapes=umlLifeline;portConstraint=eastwest;newEdgeStyle={&quot;edgeStyle&quot;:&quot;elbowEdgeStyle&quot;,&quot;elbow&quot;:&quot;vertical&quot;,&quot;curved&quot;:0,&quot;rounded&quot;:0};" parent="HNsuzrvbaMhc-dj44Uxk-44" vertex="1">
          <mxGeometry x="45" y="60" width="10" height="1170" as="geometry" />
        </mxCell>
        <mxCell id="HNsuzrvbaMhc-dj44Uxk-46" value="includ cf:user" style="text;html=1;align=center;verticalAlign=middle;whiteSpace=wrap;rounded=0;" parent="1" vertex="1">
          <mxGeometry x="154" y="-710" width="230" height="30" as="geometry" />
        </mxCell>
        <mxCell id="HNsuzrvbaMhc-dj44Uxk-47" value="" style="endArrow=classic;html=1;rounded=0;" parent="1" edge="1">
          <mxGeometry width="50" height="50" relative="1" as="geometry">
            <mxPoint x="425" y="-332" as="sourcePoint" />
            <mxPoint x="680" y="-332" as="targetPoint" />
            <Array as="points">
              <mxPoint x="510" y="-332" />
            </Array>
          </mxGeometry>
        </mxCell>
        <mxCell id="HNsuzrvbaMhc-dj44Uxk-48" value="" style="endArrow=classic;html=1;rounded=0;" parent="1" edge="1">
          <mxGeometry width="50" height="50" relative="1" as="geometry">
            <mxPoint x="425" y="130" as="sourcePoint" />
            <mxPoint x="680" y="130" as="targetPoint" />
            <Array as="points">
              <mxPoint x="510" y="130" />
            </Array>
          </mxGeometry>
        </mxCell>
      </root>
    </mxGraphModel>
  </diagram>
</mxfile>
